Simulation
nRows=41
nColumns=15
endheader
time  TH_x TH_y TH_z SC_y  SC_z  SC_x  AC_y  AC_z  AC_x  GH_y  GH_z  GH_yy  EL_x  PS_y
1.55  0.000000  0.000000  0.000000  -33.476527752527595  6.733660978414167  24.697687454948667  54.63615750620623  8.685195320470331  -7.041708004583125  21.910156733796452  54.5406356892196  -20.32199959188077  18.0028608116461  0.000000
1.581  0.000000  0.000000  0.000000  -33.875068529855454  7.056085949821858  25.708591835665562  54.67657243154555  8.477556998920765  -6.945273226313071  21.733153836102844  55.01032861729576  -20.339387616972697  17.96994446722459  0.000000
1.612  0.000000  0.000000  0.000000  -34.24625980630544  7.336828684333869  26.59241688836396  54.756185891050485  8.25058999049092  -6.8279492327322915  21.519730106864163  55.45537225820873  -20.304830380984473  17.9419840699648  0.000000
1.643  0.000000  0.000000  0.000000  -34.58156345927396  7.557817173930474  27.349803422084925  54.864965683508046  8.027994771208858  -6.717327105062529  21.29176398715245  55.85364890361526  -20.251548398834476  17.933204345374442  0.000000
1.674  0.000000  0.000000  0.000000  -34.88626750454427  7.718708092437618  27.994633389118444  54.9857382733778  7.8277705797784956  -6.6302017127584465  21.088982777856494  56.16791898273431  -20.2064937840956  17.947794655046273  0.000000
1.705  0.000000  0.000000  0.000000  -35.17025766760667  7.830589167340949  28.542798765021065  55.10274878552196  7.654654970868103  -6.572438012099458  20.950946806280133  56.36511570621312  -20.17918413295336  17.978396067687566  0.000000
1.736  0.000000  0.000000  0.000000  -35.433587932465414  7.90462495562001  29.002996260286352  55.204070575884764  7.502515819259186  -6.549933031717272  20.9039606999231  56.42808619140762  -20.16971566167236  18.014771409988192  0.000000
1.767  0.000000  0.000000  0.000000  -35.65814209993217  7.94571902112656  29.371369775870086  55.27908969497276  7.358383632402058  -6.575299433043907  20.955587684119866  56.36105584149348  -20.175733409351157  18.04877749826813  0.000000
1.798  0.000000  0.000000  0.000000  -35.812277673309744  7.953019386897593  29.634388566128123  55.31800502589543  7.206561808781141  -6.667572309464219  21.097596028747134  56.18432385554877  -20.197693698192154  18.07568645971848  0.000000
1.829  0.000000  0.000000  0.000000  -35.86604671046067  7.9224858830760585  29.779581870097797  55.31361674306848  7.034453528433662  -6.8438528192548045  21.31595914883418  55.918027310899646  -20.24201222900029  18.093391660046333  0.000000
1.8599999999999999  0.000000  0.000000  0.000000  -35.804813499288606  7.847130110414764  29.805805784978958  55.26926925508331  6.837015067756876  -7.111520382140577  21.59502497105159  55.56765886494486  -20.32821455585519  18.10264086659446  0.000000
1.891  0.000000  0.000000  0.000000  -35.632853458209105  7.716615706745397  29.725692584661264  55.20129784963959  6.617001809616895  -7.4648933043929375  21.918358110813763  55.1214600512401  -20.485970938088794  18.106522833969887  0.000000
1.922  0.000000  0.000000  0.000000  -35.369229071901195  7.522383478905663  29.556105868225483  55.135807147724336  6.377502450885806  -7.886457929793957  22.26715241389101  54.563838482717635  -20.74188797457369  18.109158579723818  0.000000
1.953  0.000000  0.000000  0.000000  -35.04336419424897  7.264018438182802  29.305515345020883  55.09979272960746  6.114395945911745  -8.347546074606926  22.620821389642625  53.891355733733675  -21.096555686598098  18.115055437108943  0.000000
1.984  0.000000  0.000000  0.000000  -34.68932694321605  6.953303625329849  28.96812475441561  55.110144284898325  5.81753684822932  -8.812775611778614  22.96308180797643  53.117558438226425  -21.514039249596742  18.12996098955447  0.000000
2.015  0.000000  0.000000  0.000000  -34.335943105380146  6.606683371691856  28.52905104984069  55.16883494190424  5.481539815131478  -9.24787341039926  23.28371525520604  52.26435236355262  -21.934290286761566  18.160865910447736  0.000000
2.046  0.000000  0.000000  0.000000  -33.99896189831226  6.236127309650389  27.975697026813688  55.26431653883342  5.114957578963482  -9.629278447250778  23.580914399135008  51.348957378984245  -22.301174975244646  18.213985124682786  0.000000
2.077  0.000000  0.000000  0.000000  -33.68240556070779  5.849147765596315  27.300420252748136  55.37798604812742  4.738563761028005  -9.942628465238755  23.859440024120296  50.379214503209646  -22.58341388507737  18.291989096590314  0.000000
2.108  0.000000  0.000000  0.000000  -33.38150050362635  5.444960435527838  26.502298671348584  55.49458357108402  4.376409689914395  -10.183994917034383  24.12360618411361  49.360248536646914  -22.780330219157708  18.391617914860923  0.000000
2.139  0.000000  0.000000  0.000000  -33.09241487851962  5.0215681600166295  25.589436566947704  55.60293471149648  4.046828427445076  -10.355313096951958  24.376021678490016  48.29604501832372  -22.906796133186713  18.506540474751603  0.000000
2.17  0.000000  0.000000  0.000000  -32.81814546633169  4.581246815812576  24.573203315304006  55.69611372927759  3.761482868391764  -10.45914327967757  24.617016342736868  47.191219463806526  -22.979066509339127  18.63070716189399  0.000000
2.201  0.000000  0.000000  0.000000  -32.56002165631839  4.124488345896184  23.46306431256769  55.76826427264974  3.5302196113110518  -10.500013340770517  24.841941389845925  46.05221844212606  -23.006978377565385  18.757876554984044  0.000000
2.232  0.000000  0.000000  0.000000  -32.3158882289948  3.6538233793865373  22.26740051137215  55.81317967391273  3.357485460023001  -10.48323555220917  25.044662663140564  44.88617068594914  -22.99519586103113  18.882662560597115  0.000000
2.263  0.000000  0.000000  0.000000  -32.084072251890284  3.173778140956135  20.996904973801414  55.82577431644508  3.243304714979597  -10.413366195120387  25.221020768187913  43.69862693855697  -22.943363435457066  19.00095171343962  0.000000
2.294  0.000000  0.000000  0.000000  -31.863179804059705  2.6883631416197065  19.66733988633356  55.80486734328619  3.1867738053105326  -10.296336561202622  25.370084467198453  42.49156054947323  -22.849134711554374  19.108580774709132  0.000000
2.325  0.000000  0.000000  0.000000  -31.653970864053456  2.2017925869868997  18.299723586962948  55.752494296752445  3.18455771655734  -10.13927183341117  25.495583050700507  41.26421587857662  -22.70832163907225  19.20169710923771  0.000000
2.356  0.000000  0.000000  0.000000  -31.458467753941164  1.7190193342423326  16.916607413652056  55.67310186989451  3.230930348506209  -9.949426003040866  25.604541711071267  40.01315222484484  -22.518559173375042  19.278313732601486  0.000000
2.387  0.000000  0.000000  0.000000  -31.277582922093753  1.2465746073940762  15.53793324943603  55.5693365814031  3.3165082651814757  -9.733433268042104  25.703814770800825  38.733852356239304  -22.280130699751737  19.339846009575812  0.000000
2.418  0.000000  0.000000  0.000000  -31.109979630719913  0.7928604034008748  14.179923523969634  55.44150434952  3.4287670640355525  -9.4963888258492  25.79847717708411  37.41987532748998  -21.99699109213211  19.390171636276712  0.000000
2.449  0.000000  0.000000  0.000000  -30.95287716843775  0.3670936283966393  12.853595031320275  55.28688547419101  3.5552354942076527  -9.241742150634733  25.89272736285966  36.06447564536036  -21.67556046361513  19.435069031359095  0.000000
2.48  0.000000  0.000000  0.000000  -30.80311393154406  -0.025294889913038455  11.568380463620873  55.10552012301456  3.6882586746625017  -8.973935522664533  25.990441072672436  34.659866806652836  -21.326166073444814  19.47883443254895  0.000000
2.511  0.000000  0.000000  0.000000  -30.66025611190498  -0.38457218374211927  10.333452460337142  54.90201307917073  3.8257168753337303  -8.698395819303116  26.095403721340904  33.20010497767461  -20.964424818482282  19.523065273833407  0.000000
2.542  0.000000  0.000000  0.000000  -30.52903272341818  -0.7139512804979813  9.158981754380118  54.688525289000935  3.9691442613642014  -8.420046676669509  26.211453264559747  31.68072876901359  -20.610251479805424  19.56804001979812  0.000000
2.573  0.000000  0.000000  0.000000  -30.413775680741875  -1.0170425959845932  8.053448044083758  54.47808922453386  4.120372385789798  -8.142421905568188  26.341423921445358  30.101110487175063  -20.28211424516576  19.611867546114624  0.000000
2.604  0.000000  0.000000  0.000000  -30.314676296213644  -1.2927650642520365  7.023443257198368  54.27881350244025  4.277006289348227  -7.866292692921314  26.488493827801385  28.463022248751397  -19.98986503777635  19.65362691644786  0.000000
2.635  0.000000  0.000000  0.000000  -30.225636903311056  -1.5339710350226796  6.070456930547894  54.0912162254765  4.432441006451507  -7.590321252383893  26.65650593945445  26.772234333026407  -19.731749621797327  19.692506306624637  0.000000
2.666  0.000000  0.000000  0.000000  -30.137713750218055  -1.7324070245932222  5.193818172244184  53.90975655200112  4.579558495426622  -7.31244617763274  26.84900665777056  25.03556292797705  -19.496496054285288  19.730751354657155  0.000000
2.697  0.000000  0.000000  0.000000  -30.043711235981274  -1.8844029061003322  4.389119359435723  53.73060476990335  4.713932147351582  -7.034058908260256  27.068301258387123  23.265860613055548  -19.27043037066189  19.769454074298057  0.000000
2.7279999999999998  0.000000  0.000000  0.000000  -29.943425444294235  -1.9944605742511934  3.6526048983510804  53.54965003443675  4.834599788587408  -6.759462813979319  27.314200242888827  21.47912158543512  -19.040604695389963  19.813980486189987  0.000000
2.759  0.000000  0.000000  0.000000  -29.8415969497559  -2.0731315762718627  2.9780393575597865  53.36950305249683  4.944075322243468  -6.497142920183507  27.585435399100678  19.696711249563876  -18.797962389846976  19.86620063883172  0.000000
2.79  0.000000  0.000000  0.000000  -29.74377730762916  -2.130823698822376  2.363058424938731  53.18734331473439  5.0448521170366565  -6.254013424601245  27.87873956125973  17.93365186728335  -18.536313002880604  19.933822155688578  0.000000
